<svg xmlns="http://www.w3.org/2000/svg" xmlns:xlink="http://www.w3.org/1999/xlink" id="eAREBkLWvZc1" viewBox="0 0 288 83" shape-rendering="geometricPrecision" text-rendering="geometricPrecision"><polygon points="23.88,51.81 57.78,51.81 57.78,38.02 23.88,38.02 23.88,19.26 61.29,19.26 61.29,5.6 6.65,5.6 6.65,83.4 64.85,83.4 64.85,69.41 23.88,69.41" transform="translate(-6.65-3.06)" fill="#fff" stroke="#702452" stroke-dashoffset="414.62" stroke-dasharray="414.62"/><path d="M104.78,3.22c-13.27,0-27.47,7.62-27.47,23.84c0,29.47,43.72,18.66,43.72,35.43c0,8.06-8.64,9.82-14.3,9.82-5.87,0-14.32-1.41-16.16-11.35h-15.57c1.56,17.16,15.61,24.82,31.12,24.82c20.06,0,30.55-10.82,30.55-25.28c0-17.88-16.36-21.52-21.81-22.96-18.41-4.75-21.91-6.07-21.91-11.92c0-6.62,5.97-8.94,11.11-8.94c4.95,0,12.28.34,14.39,9.05h15.62C132.66,9.64,119.28,3.22,104.78,3.22" transform="translate(-6.65-3.22)" fill="#fff" stroke="#702452" stroke-dashoffset="401.04" stroke-dasharray="401.04"/><path d="M187.63,37.55c-18.41-4.75-21.91-6.07-21.91-11.92c0-6.62,5.96-8.94,11.11-8.94c4.95,0,12.28.34,14.38,9.05h15.62c-1.42-16.1-14.79-22.52-29.29-22.52-13.27,0-27.47,7.62-27.47,23.84c0,29.47,43.72,18.66,43.72,35.43c0,8.06-8.64,9.82-14.3,9.82-5.87,0-14.32-1.41-16.16-11.35h-15.58c1.55,17.16,15.61,24.82,31.12,24.82c20.06,0,30.55-10.82,30.55-25.28.02-17.88-16.34-21.52-21.79-22.95" transform="translate(-6.65-3.22)" fill="#fff" stroke="#702452" stroke-dashoffset="401.04" stroke-dasharray="401.04"/><path d="M261.87,5.76h-7.8-.01-.15-.01-7.8L214.06,83.24h16.17l7.31-17.88h32.87l7.31,17.88h16.17L261.87,5.76ZM243.28,51.37l10.71-26.18L264.7,51.37h-21.42Z" transform="translate(-6.65-3.22)" fill="#fff" stroke="#702452" stroke-dashoffset="365.284241" stroke-dasharray="365.28"/></svg>